<?xml version="1.0" encoding="utf-8"?>
<!-- Generator: Adobe Illustrator 26.0.1, SVG Export Plug-In . SVG Version: 6.00 Build 0)  -->
<svg version="1.2" baseProfile="tiny" id="Layer_1" xmlns="http://www.w3.org/2000/svg" xmlns:xlink="http://www.w3.org/1999/xlink"
	 x="0px" y="0px" viewBox="0 0 800 800" overflow="visible" xml:space="preserve">
<linearGradient id="SVGID_1_" gradientUnits="userSpaceOnUse" x1="-1851.1766" y1="1538.0742" x2="-1851.1766" y2="1229.2543">
	<stop  offset="0" style="stop-color:#5B80FA"/>
	<stop  offset="1" style="stop-color:#2B308B"/>
</linearGradient>
<path fill="url(#SVGID_1_)" d="M-1655.24,1420.1c-1.56,8.48-3.65,16.77-6.25,24.84c-1.6,4.98-3.4,9.88-5.38,14.69
	c-3.49,8.47-7.54,16.65-12.12,24.49c-0.01,0.02-0.02,0.04-0.03,0.05c-1.62,2.42-3.35,4.79-5.19,7.1
	c-7.4,9.33-15.85,17.45-25.34,24.36c-9.49,6.92-19.7,12.39-30.64,16.41c-10.93,4.02-21.71,6.03-32.33,6.03h-204.16
	c-13.71-11.19-25.89-24.18-36.18-38.6h177.13c10.94,0,21.47-3.7,31.61-11.1c10.13-7.4,17.13-16.57,20.99-27.5l7.23-19.79
	c4.19-10.94,3.86-20.1-0.96-27.5c-4.83-7.4-12.71-11.1-23.64-11.1h-193.02c-10.94,0-20.35-2.01-28.23-6.03s-14-9.49-18.34-16.41
	c-4.34-6.92-6.75-15.04-7.24-24.37c-0.05-0.96-0.08-1.93-0.08-2.92c4.62-29.36,15.67-56.58,31.65-80.19
	c6.7-7.88,14.19-14.84,22.48-20.88c9.49-6.91,19.7-12.38,30.64-16.4c10.94-4.02,21.71-6.03,32.33-6.03h204.5
	c13.81,11.17,26.09,24.16,36.47,38.6h-177.76c-10.61,0-20.99,3.54-31.12,10.61c-10.13,7.08-17.13,15.93-20.99,26.54l-7.24,20.27
	c-4.18,10.94-3.94,20.11,0.72,27.51c4.67,7.4,12.47,11.1,23.41,11.1h193.02c10.93,0,20.42,2.01,28.47,6.03
	c8.04,4.02,14.23,9.49,18.57,16.4c4.35,6.92,6.76,15.04,7.24,24.37C-1654.86,1413.73-1654.94,1416.87-1655.24,1420.1z"/>
<g>
	<path d="M-1740.01,1037.58c3.86-10.61,10.86-19.46,20.99-26.54c10.13-7.07,20.51-10.61,31.12-10.61h231.62l14-38.6h-308.83
		c-10.62,0-21.39,2.01-32.33,6.03c-10.94,4.02-21.15,9.49-30.64,16.4c-8.29,6.04-15.78,13-22.48,20.88
		c-0.97,1.14-1.92,2.31-2.86,3.49c-7.39,9.33-13.02,19.46-16.88,30.4l-6.76,18.82c-3.46,9.81-5.18,18.97-5.15,27.48
		c0,0.99,0.03,1.96,0.08,2.92c0.49,9.33,2.9,17.45,7.24,24.37s10.46,12.39,18.34,16.41s17.29,6.03,28.23,6.03h193.02
		c10.93,0,18.81,3.7,23.64,11.1c4.82,7.4,5.15,16.56,0.96,27.5l-7.23,19.79c-3.86,10.93-10.86,20.1-20.99,27.5
		c-10.14,7.4-20.67,11.1-31.61,11.1h-270.23l-13.99,38.6h347.43c10.62,0,21.4-2.01,32.33-6.03c10.94-4.02,21.15-9.49,30.64-16.41
		c9.49-6.91,17.94-15.03,25.34-24.36c1.84-2.31,3.57-4.68,5.19-7.1c0.01-0.01,0.02-0.03,0.03-0.05c4.88-7.3,8.77-15.05,11.67-23.25
		l0.45-1.24l5.38-14.69l1.41-3.86c2.6-7.36,4.21-14.36,4.84-20.98c0.3-3.23,0.38-6.37,0.22-9.42c-0.48-9.33-2.89-17.45-7.24-24.37
		c-4.34-6.91-10.53-12.38-18.57-16.4c-8.05-4.02-17.54-6.03-28.47-6.03h-193.02c-10.94,0-18.74-3.7-23.41-11.1
		c-4.66-7.4-4.9-16.57-0.72-27.51L-1740.01,1037.58z"/>
</g>
<linearGradient id="SVGID_00000116939498919410960940000001755254401778400664_" gradientUnits="userSpaceOnUse" x1="70.7648" y1="547.0645" x2="70.7648" y2="534.5407">
	<stop  offset="0" style="stop-color:#5B80FA"/>
	<stop  offset="1" style="stop-color:#2B308B"/>
</linearGradient>
<path fill="url(#SVGID_00000116939498919410960940000001755254401778400664_)" d="M68.03,534.54c1.75,4.21,3.56,8.39,5.47,12.52
	C71.59,542.94,69.76,538.75,68.03,534.54z"/>
<linearGradient id="SVGID_00000021099715146905900790000018382271052449731729_" gradientUnits="userSpaceOnUse" x1="92.8164" y1="594.4965" x2="92.8164" y2="571.3383">
	<stop  offset="0" style="stop-color:#5B80FA"/>
	<stop  offset="1" style="stop-color:#2B308B"/>
</linearGradient>
<path fill="url(#SVGID_00000021099715146905900790000018382271052449731729_)" d="M85.79,571.34c4.41,7.9,9.09,15.64,14.05,23.16
	C94.86,586.98,90.18,579.26,85.79,571.34z"/>
<g>
	<g>
		<path d="M752.07,464.99c0-0.02,0-0.04,0.02-0.05c0,0.04,0,0.05-0.02,0.09C752.07,465.01,752.07,465.01,752.07,464.99z"/>
		<path d="M755.09,445.6c0.38-2.99,0.72-5.99,1.03-9C755.83,439.6,755.47,442.61,755.09,445.6z"/>
	</g>
	
		<linearGradient id="SVGID_00000041282991594083768440000001459713296338250907_" gradientUnits="userSpaceOnUse" x1="364.228" y1="199.5475" x2="364.228" y2="42.0286">
		<stop  offset="0" style="stop-color:#5B80FA"/>
		<stop  offset="1" style="stop-color:#2B308B"/>
	</linearGradient>
	<path fill="url(#SVGID_00000041282991594083768440000001459713296338250907_)" d="M625.09,121.65H257.11
		c-19.11,0-38.49,3.62-58.17,10.85c-19.69,7.23-38.06,17.08-55.13,29.51c-14.9,10.85-28.38,23.37-40.43,37.54
		c0.76-1.1,1.49-2.2,2.25-3.27c0.81-1.17,1.64-2.34,2.47-3.49c0.77-1.1,1.57-2.2,2.34-3.27c2.16-2.97,4.35-5.88,6.6-8.76
		c0.72-0.95,1.46-1.89,2.21-2.83c0.92-1.17,1.85-2.34,2.81-3.51c1.31-1.62,2.63-3.22,3.98-4.8c1.1-1.3,2.2-2.59,3.29-3.87
		c1.55-1.78,3.11-3.54,4.7-5.29c0.81-0.92,1.64-1.82,2.47-2.72c0.11-0.13,0.2-0.23,0.32-0.34c1.15-1.28,2.34-2.54,3.53-3.78
		c3.2-3.38,6.5-6.71,9.84-9.99c0.88-0.85,1.78-1.71,2.66-2.56c10.11-9.66,20.78-18.73,31.96-27.15c1.26-0.94,2.52-1.89,3.8-2.81
		c3.06-2.27,6.19-4.46,9.34-6.62c1.19-0.81,2.38-1.62,3.58-2.43c0.18-0.13,0.34-0.23,0.52-0.34c1.42-0.95,2.84-1.89,4.28-2.81
		c1.46-0.94,2.92-1.87,4.39-2.79c0.05-0.04,0.11-0.07,0.16-0.09c1.48-0.92,2.95-1.84,4.43-2.72c3.4-2.05,6.82-4.05,10.29-5.99
		c2.88-1.6,5.78-3.17,8.71-4.7c1.69-0.9,3.36-1.76,5.06-2.61c1.53-0.76,3.08-1.53,4.62-2.27c1.62-0.79,3.26-1.57,4.89-2.34
		c1.28-0.59,2.54-1.19,3.81-1.75c1.03-0.47,2.05-0.94,3.09-1.39c0.99-0.45,2-0.88,3-1.31c1.67-0.72,3.35-1.42,5.02-2.11
		c1.48-0.61,2.95-1.21,4.43-1.8c2.29-0.9,4.59-1.78,6.89-2.65c1.3-0.49,2.59-0.95,3.89-1.4c0.04-0.04,0.09-0.05,0.14-0.05
		c1.69-0.63,3.4-1.22,5.11-1.8c1.67-0.58,3.36-1.13,5.06-1.69c0.13-0.04,0.25-0.07,0.36-0.11c1.66-0.54,3.35-1.08,5.02-1.58
		c1.48-0.47,2.95-0.9,4.44-1.33c2.09-0.61,4.17-1.21,6.26-1.78c1.71-0.47,3.42-0.92,5.13-1.37c0.04,0,0.05,0,0.09-0.02
		c1.78-0.45,3.58-0.9,5.36-1.33c1.8-0.43,3.6-0.85,5.42-1.26c1.8-0.4,3.62-0.79,5.43-1.17c1.49-0.31,2.99-0.61,4.5-0.9
		c1.76-0.34,3.53-0.68,5.29-0.99c0.83-0.14,1.67-0.31,2.5-0.43c1.37-0.25,2.75-0.47,4.14-0.68c0.04-0.02,0.09-0.02,0.13-0.04
		c1.33-0.2,2.68-0.41,4.03-0.61c3.8-0.56,7.63-1.06,11.46-1.49c1.51-0.18,3.01-0.34,4.52-0.49c1.28-0.13,2.56-0.25,3.83-0.36
		c1.42-0.14,2.84-0.27,4.26-0.38c1.84-0.14,3.65-0.27,5.51-0.4c4.03-0.25,8.06-0.43,12.11-0.56c1.71-0.05,3.4-0.09,5.11-0.11
		c1.93-0.04,3.85-0.05,5.78-0.05c1.55,0,3.09,0.02,4.62,0.04c1.12,0,2.23,0.02,3.35,0.05c1.12,0.02,2.23,0.05,3.33,0.09
		c0.85,0.02,1.69,0.05,2.54,0.09c1.53,0.05,3.06,0.13,4.59,0.2c6.1,0.31,12.18,0.77,18.21,1.39c1.49,0.14,2.99,0.31,4.48,0.49
		c1.49,0.16,2.99,0.34,4.48,0.54c1.13,0.14,2.27,0.29,3.38,0.45c4.53,0.61,9.05,1.31,13.53,2.12c1.19,0.2,2.36,0.41,3.54,0.63
		c2.63,0.49,5.25,1.01,7.88,1.57c1.22,0.25,2.45,0.52,3.67,0.79c1.26,0.29,2.5,0.56,3.74,0.85c2.5,0.59,4.98,1.19,7.45,1.82
		c1.22,0.32,2.47,0.65,3.69,0.97c1.22,0.32,2.47,0.67,3.69,1.01c5.42,1.49,10.8,3.13,16.1,4.89c1.89,0.61,3.76,1.26,5.63,1.91
		c2.54,0.88,5.07,1.8,7.59,2.74c1.03,0.4,2.03,0.77,3.04,1.17c1.17,0.45,2.34,0.9,3.51,1.37c1.17,0.47,2.34,0.94,3.49,1.4
		c1.15,0.47,2.32,0.95,3.47,1.44c2.27,0.95,4.53,1.94,6.77,2.95c1.19,0.52,2.38,1.04,3.54,1.6c1.13,0.52,2.27,1.04,3.4,1.58
		c5.76,2.72,11.43,5.58,17.02,8.6c0.99,0.54,1.98,1.08,2.95,1.62c1.1,0.59,2.18,1.21,3.26,1.82c5.42,3.06,10.74,6.24,15.98,9.59
		c1.04,0.67,2.09,1.33,3.13,2.02c1.03,0.68,2.07,1.37,3.09,2.05c4.12,2.74,8.19,5.56,12.2,8.49c1.01,0.72,2,1.46,2.99,2.2
		c1.01,0.74,2,1.49,2.97,2.23c0.99,0.74,1.98,1.49,2.95,2.27c0.97,0.76,1.94,1.51,2.92,2.29
		C623.16,120.1,624.13,120.88,625.09,121.65z"/>
	
		<linearGradient id="SVGID_00000015342102581441641100000014014734253723874238_" gradientUnits="userSpaceOnUse" x1="229.9393" y1="87.3193" x2="229.9393" y2="82.6229">
		<stop  offset="0" style="stop-color:#5B80FA"/>
		<stop  offset="1" style="stop-color:#2B308B"/>
	</linearGradient>
	<path fill="url(#SVGID_00000015342102581441641100000014014734253723874238_)" d="M234.29,82.62c-2.93,1.53-5.83,3.1-8.71,4.7
		C228.46,85.72,231.36,84.13,234.29,82.62z"/>
	
		<linearGradient id="SVGID_00000117663948051549308840000009103243925490290358_" gradientUnits="userSpaceOnUse" x1="508.3462" y1="464.9402" x2="508.3462" y2="191.1084">
		<stop  offset="0" style="stop-color:#5B80FA"/>
		<stop  offset="1" style="stop-color:#2B308B"/>
	</linearGradient>
	<path fill="url(#SVGID_00000117663948051549308840000009103243925490290358_)" d="M757.97,400c0,2.79-0.04,5.56-0.09,8.31v0.25
		c-0.04,0.92-0.05,1.85-0.09,2.77c-0.02,0.88-0.05,1.76-0.09,2.63c-0.04,1.22-0.09,2.47-0.16,3.69c-0.04,1.01-0.09,2.03-0.16,3.04
		c-0.07,1.3-0.14,2.59-0.23,3.89c0,0.07-0.02,0.14-0.02,0.22c-0.09,1.37-0.2,2.73-0.31,4.08c-0.07,1.06-0.16,2.14-0.27,3.2
		c-0.13,1.51-0.27,3-0.43,4.52c-0.31,3-0.65,6.01-1.03,9c-0.32,2.52-0.67,5.04-1.04,7.54c-0.18,1.26-0.38,2.54-0.58,3.8
		c-0.02,0.11-0.04,0.22-0.05,0.31c-0.2,1.24-0.4,2.48-0.63,3.72c-0.14,0.95-0.32,1.91-0.5,2.84c-0.05,0.38-0.13,0.76-0.2,1.13
		c0.52-5.78,0.67-11.37,0.38-16.82c-0.86-16.79-5.2-31.4-13.03-43.85c-7.81-12.43-18.95-22.28-33.41-29.51
		c-14.49-7.23-31.56-10.85-51.23-10.85H307.48c-19.69,0-33.72-6.66-42.12-19.97c-8.39-13.32-8.82-29.82-1.3-49.5l13.03-36.47
		c6.95-19.09,19.54-35.02,37.77-47.76c18.23-12.72,36.91-19.09,56-19.09h319.86c1.33,1.84,2.63,3.69,3.92,5.56
		c1.22,1.76,2.43,3.54,3.62,5.33c0.34,0.47,0.65,0.95,0.97,1.46c0.97,1.51,1.96,3.02,2.93,4.53c2.45,3.81,4.8,7.7,7.09,11.62
		c2.2,3.72,4.3,7.49,6.33,11.28c0.41,0.76,0.83,1.53,1.22,2.3c0.77,1.46,1.53,2.92,2.27,4.39c1.04,2.03,2.07,4.07,3.06,6.12
		c1.01,2.05,1.98,4.12,2.93,6.19c0.97,2.09,1.91,4.17,2.83,6.26c0.67,1.49,1.31,3,1.94,4.52c0.02,0,0.02,0.02,0.02,0.04
		c0.04,0.09,0.07,0.18,0.11,0.27c0.34,0.76,0.67,1.53,0.97,2.3c0.76,1.82,1.49,3.63,2.21,5.47c0.02,0.04,0.04,0.07,0.04,0.11
		c0.85,2.14,1.67,4.28,2.47,6.44c0.72,1.91,1.4,3.81,2.09,5.74c0.02,0.07,0.05,0.13,0.07,0.2c0.16,0.47,0.32,0.95,0.49,1.44
		c0.63,1.82,1.26,3.63,1.85,5.47c0.4,1.17,0.77,2.34,1.13,3.51c0.36,1.12,0.7,2.21,1.04,3.33c0.34,1.1,0.67,2.21,0.99,3.31
		c0.32,1.12,0.65,2.23,0.97,3.35c0.25,0.86,0.49,1.71,0.72,2.57c0.4,1.39,0.77,2.77,1.13,4.16c0.31,1.12,0.59,2.25,0.88,3.38
		c0.43,1.69,0.85,3.38,1.24,5.09c0.41,1.69,0.81,3.4,1.19,5.11c0.38,1.73,0.76,3.44,1.1,5.16c0.36,1.71,0.7,3.44,1.04,5.16
		c0.25,1.37,0.5,2.75,0.76,4.12c0.23,1.35,0.49,2.72,0.7,4.07c0.32,1.91,0.63,3.83,0.92,5.76c0.18,1.22,0.36,2.47,0.54,3.71
		c0.22,1.48,0.41,2.97,0.59,4.46c0.2,1.49,0.38,3,0.54,4.5c0.25,2.16,0.47,4.34,0.68,6.5c0.16,1.64,0.31,3.27,0.43,4.91
		c0.16,1.93,0.31,3.83,0.43,5.76c0.13,1.91,0.25,3.83,0.34,5.76c0.07,1.44,0.13,2.9,0.18,4.34c0.05,1.13,0.09,2.29,0.13,3.44
		c0.02,0.83,0.04,1.66,0.05,2.5c0.04,1.08,0.05,2.18,0.05,3.27C757.95,396.91,757.97,398.45,757.97,400z"/>
	
		<linearGradient id="SVGID_00000096032501212314074600000016271806007543706038_" gradientUnits="userSpaceOnUse" x1="291.1151" y1="607.884" x2="291.1151" y2="343.8949">
		<stop  offset="0" style="stop-color:#5B80FA"/>
		<stop  offset="1" style="stop-color:#2B308B"/>
	</linearGradient>
	<path fill="url(#SVGID_00000096032501212314074600000016271806007543706038_)" d="M534.95,502.82l-13.01,35.61
		c-6.95,19.67-19.54,36.17-37.77,49.48c-18.25,13.32-37.19,19.97-56.88,19.97H108.57c-1.31-1.84-2.61-3.67-3.87-5.52
		c-1.28-1.87-2.54-3.72-3.78-5.61c-4.97-7.52-9.64-15.26-14.05-23.16c-1.1-1.98-2.18-3.98-3.24-5.97c-0.14-0.27-0.29-0.54-0.43-0.81
		c-0.88-1.67-1.75-3.35-2.61-5.04c-0.09-0.16-0.16-0.31-0.23-0.47c-0.97-1.93-1.93-3.87-2.88-5.81c-0.05-0.11-0.09-0.2-0.14-0.29
		c-0.92-1.96-1.85-3.9-2.75-5.88c-1.91-4.14-3.72-8.31-5.47-12.52c-0.86-2.11-1.73-4.21-2.56-6.35c-0.83-2.12-1.66-4.26-2.45-6.41
		c-0.61-1.69-1.22-3.38-1.84-5.07c-0.23-0.65-0.47-1.31-0.68-1.98c-0.61-1.76-1.21-3.54-1.8-5.33c-0.45-1.37-0.88-2.74-1.31-4.1
		c-0.32-1.03-0.65-2.05-0.95-3.1c-0.68-2.2-1.33-4.41-1.96-6.64c-0.38-1.35-0.76-2.72-1.13-4.08c-0.45-1.64-0.86-3.27-1.3-4.91
		c-0.23-0.94-0.47-1.85-0.7-2.79c-0.34-1.46-0.7-2.9-1.04-4.35c-0.31-1.35-0.61-2.7-0.92-4.07c-0.25-1.12-0.49-2.21-0.72-3.33
		c-0.25-1.17-0.49-2.34-0.72-3.51c-0.18-0.83-0.34-1.66-0.49-2.48c-0.2-1.01-0.38-2.02-0.58-3.02c-0.72-3.9-1.39-7.85-1.98-11.8
		c-0.34-2.32-0.67-4.66-0.97-7c-0.23-1.78-0.45-3.56-0.65-5.36c-0.16-1.44-0.32-2.9-0.47-4.34c-0.16-1.57-0.31-3.11-0.45-4.68
		c-0.13-1.46-0.25-2.92-0.36-4.35c-0.07-0.85-0.13-1.67-0.18-2.5c-0.09-1.21-0.16-2.39-0.23-3.58c-0.11-1.76-0.2-3.53-0.27-5.29
		c-0.02-0.14-0.02-0.29-0.02-0.43c-0.04-0.59-0.05-1.21-0.09-1.8c-0.02-0.72-0.05-1.44-0.07-2.16c-0.02-0.49-0.02-0.95-0.04-1.44
		c-0.04-0.92-0.05-1.82-0.07-2.73c-0.04-1.04-0.05-2.11-0.05-3.17c-0.02-1.53-0.04-3.08-0.04-4.62c0-1.87,0.02-3.72,0.05-5.58
		c0-0.32,0.02-0.63,0.02-0.95v-0.88c0.04-1.35,0.07-2.7,0.13-4.05c0-0.2,0-0.41,0.02-0.61v-0.18c0.04-1.44,0.09-2.86,0.18-4.3
		c0.05-1.6,0.14-3.18,0.23-4.77c0.13-2.36,0.29-4.7,0.49-7.04c0.13-1.8,0.29-3.58,0.47-5.36c0.02-0.25,0.05-0.5,0.07-0.76
		c0.04-0.5,0.09-1.01,0.14-1.53v-0.02c0.02-0.2,0.04-0.38,0.05-0.58c0.18-1.84,0.38-3.65,0.59-5.47c0.02-0.22,0.05-0.43,0.09-0.65
		c0.02-0.11,0.02-0.22,0.04-0.32c0.22-1.91,0.45-3.8,0.72-5.69c0.02-0.04,0.02-0.05,0.02-0.09c0.02-0.13,0.04-0.27,0.05-0.4v-0.05
		c0.29-2.18,0.61-4.35,0.95-6.51l0.05-0.32c0,1.78,0.05,3.51,0.14,5.24c0.88,16.79,5.22,31.4,13.03,43.85
		c7.81,12.45,18.82,22.29,33,29.53s31.11,10.85,50.8,10.85h347.32c19.67,0,33.85,6.66,42.54,19.97
		C541.9,466.65,542.49,483.13,534.95,502.82z"/>
	
		<linearGradient id="SVGID_00000138547579014178403700000005004149306862151606_" gradientUnits="userSpaceOnUse" x1="441.44" y1="757.9714" x2="441.44" y2="580.4612">
		<stop  offset="0" style="stop-color:#5B80FA"/>
		<stop  offset="1" style="stop-color:#2B308B"/>
	</linearGradient>
	<path fill="url(#SVGID_00000138547579014178403700000005004149306862151606_)" d="M709.21,580.46c-0.07,0.13-0.13,0.25-0.22,0.38
		c-0.88,1.49-1.76,2.99-2.66,4.46c-0.81,1.35-1.62,2.66-2.45,3.99c-0.2,0.31-0.38,0.61-0.58,0.92c-0.41,0.67-0.85,1.33-1.28,1.98
		c-0.31,0.52-0.65,1.03-0.97,1.55c-0.07,0.13-0.16,0.23-0.23,0.36c-0.52,0.81-1.04,1.62-1.58,2.41c-1.08,1.66-2.18,3.29-3.29,4.91
		c-0.05,0.07-0.09,0.14-0.14,0.22c-0.63,0.95-1.3,1.89-1.94,2.83c-0.29,0.4-0.56,0.79-0.85,1.19c-0.72,1.04-1.46,2.09-2.21,3.11
		c-0.5,0.72-1.03,1.44-1.55,2.14c-0.54,0.76-1.1,1.51-1.66,2.25c-0.5,0.68-1.03,1.39-1.55,2.07c-0.81,1.1-1.64,2.18-2.47,3.26
		c-0.32,0.43-0.65,0.85-0.97,1.24c-2.14,2.75-4.3,5.47-6.51,8.13c-1.12,1.35-2.23,2.68-3.36,3.99c-1.12,1.31-2.23,2.63-3.38,3.92
		c-1.31,1.51-2.65,2.99-3.99,4.48c-1.35,1.49-2.7,2.97-4.07,4.43c-1.04,1.12-2.09,2.21-3.13,3.29c-3.81,3.99-7.72,7.88-11.73,11.66
		c-0.74,0.72-1.48,1.4-2.21,2.11c-0.02,0.02-0.05,0.04-0.07,0.05c-2.2,2.05-4.43,4.08-6.68,6.08c-0.05,0.05-0.11,0.09-0.16,0.14
		c-0.79,0.68-1.58,1.39-2.38,2.07c-1.31,1.15-2.63,2.3-3.98,3.44c-0.22,0.18-0.45,0.38-0.67,0.56c-1.8,1.51-3.63,3-5.47,4.48
		c-1.44,1.17-2.88,2.34-4.35,3.47c-0.05,0.05-0.13,0.09-0.18,0.14c-0.04,0.04-0.07,0.05-0.11,0.09c-0.13,0.09-0.23,0.18-0.36,0.27
		c-0.72,0.58-1.48,1.15-2.21,1.71c-2.27,1.75-4.57,3.47-6.89,5.16c-1.15,0.85-2.32,1.67-3.49,2.5c-1.17,0.85-2.34,1.67-3.53,2.48
		c-1.17,0.81-2.36,1.64-3.54,2.43c-1.67,1.13-3.35,2.25-5.04,3.35c-1.21,0.79-2.41,1.57-3.63,2.34c-1.66,1.04-3.33,2.09-5,3.11
		c-1.51,0.94-3.02,1.84-4.55,2.74c-1.24,0.74-2.48,1.46-3.74,2.18c-1.1,0.63-2.21,1.26-3.33,1.89c-2.65,1.49-5.33,2.95-8.03,4.37
		c-1.28,0.68-2.57,1.35-3.85,2c-1.69,0.86-3.36,1.71-5.06,2.54c-1.4,0.7-2.81,1.39-4.23,2.05c-0.07,0.04-0.14,0.07-0.22,0.11
		c-1.12,0.54-2.25,1.06-3.38,1.58c-3.54,1.66-7.14,3.24-10.74,4.77c-1.75,0.74-3.51,1.46-5.25,2.16c-1.8,0.74-3.62,1.44-5.43,2.14
		c-3.2,1.24-6.44,2.43-9.7,3.58c-0.61,0.22-1.21,0.43-1.82,0.63c-1.55,0.54-3.09,1.06-4.66,1.58c-2,0.67-4.01,1.31-6.03,1.94
		c-1.84,0.56-3.69,1.12-5.54,1.66c-1.3,0.38-2.61,0.76-3.92,1.13c-0.23,0.07-0.47,0.13-0.7,0.2c-0.52,0.14-1.06,0.29-1.6,0.43
		c-3.62,0.99-7.23,1.93-10.89,2.81c-1.91,0.45-3.83,0.9-5.78,1.33c-1.93,0.43-3.87,0.85-5.81,1.24c-1.66,0.34-3.31,0.67-4.97,0.97
		c-0.41,0.07-0.81,0.16-1.22,0.23c-0.41,0.09-0.81,0.16-1.22,0.22c-0.18,0.04-0.36,0.07-0.54,0.11c-1.26,0.23-2.52,0.45-3.78,0.67
		c-1.96,0.34-3.94,0.65-5.9,0.95c-0.02,0-0.04,0.02-0.05,0.02c-1.78,0.27-3.58,0.52-5.36,0.77c-0.5,0.07-1.01,0.14-1.51,0.2
		c-1.42,0.2-2.84,0.38-4.28,0.54c-0.4,0.05-0.79,0.11-1.17,0.14c-1.46,0.18-2.9,0.34-4.35,0.49c-0.74,0.09-1.49,0.16-2.23,0.22
		c-0.14,0.02-0.27,0.04-0.41,0.04c-0.2,0.02-0.41,0.05-0.61,0.07c-1.17,0.13-2.36,0.23-3.54,0.32c-0.09,0-0.2,0.02-0.29,0.02
		c-0.14,0.02-0.27,0.04-0.4,0.04c-1.89,0.16-3.78,0.31-5.69,0.43c-0.07,0.02-0.14,0.02-0.22,0.02c-1.91,0.13-3.83,0.25-5.76,0.34
		c-0.29,0.02-0.56,0.04-0.85,0.04c-1.73,0.09-3.47,0.16-5.2,0.22c-0.13,0.02-0.27,0.02-0.4,0.02c-0.11,0-0.2,0-0.31,0.02
		c-1.58,0.05-3.15,0.09-4.73,0.11c-0.16,0.02-0.32,0.02-0.49,0.02c-0.59,0.02-1.19,0.02-1.8,0.04c-1.64,0.02-3.27,0.04-4.93,0.04
		c-1.55,0-3.1-0.02-4.62-0.04c-1.13,0-2.27-0.04-3.4-0.05c-1.03-0.02-2.03-0.05-3.04-0.09c-1.03-0.04-2.05-0.05-3.08-0.11
		c-0.16,0-0.34,0-0.5-0.02c-1.3-0.04-2.59-0.11-3.89-0.16c-0.16,0-0.32-0.02-0.49-0.04c-0.88-0.04-1.76-0.09-2.65-0.14
		c-0.77-0.04-1.53-0.09-2.29-0.14c-1.33-0.09-2.65-0.18-3.96-0.29c-1.69-0.13-3.38-0.27-5.07-0.43c-1.21-0.09-2.41-0.22-3.62-0.34
		c-1.62-0.16-3.24-0.34-4.86-0.52c-1.37-0.16-2.75-0.32-4.14-0.5c-1.49-0.18-2.99-0.38-4.46-0.59c-1.26-0.18-2.52-0.36-3.78-0.54
		c-0.68-0.11-1.35-0.22-2.03-0.32c-1.78-0.27-3.56-0.58-5.33-0.88c-0.72-0.13-1.46-0.25-2.18-0.38c-1.84-0.32-3.67-0.67-5.49-1.03
		c-1.84-0.36-3.65-0.74-5.49-1.12c-1.15-0.23-2.3-0.49-3.47-0.74c-0.27-0.07-0.56-0.13-0.85-0.2c-1.06-0.23-2.14-0.49-3.22-0.74
		c-1.24-0.29-2.5-0.59-3.74-0.9c-2.07-0.5-4.16-1.03-6.21-1.58c-1.66-0.43-3.31-0.88-4.95-1.35c-0.41-0.11-0.81-0.23-1.21-0.34
		c-0.63-0.18-1.26-0.36-1.87-0.54c-0.63-0.18-1.26-0.36-1.87-0.54c-0.94-0.27-1.89-0.56-2.82-0.85c-1.01-0.31-2.02-0.61-3.02-0.94
		c-1.28-0.41-2.57-0.81-3.85-1.24c-1.1-0.36-2.21-0.74-3.33-1.12c-0.09-0.04-0.2-0.07-0.29-0.09c-2.05-0.7-4.08-1.4-6.12-2.14
		c-0.38-0.13-0.74-0.27-1.12-0.4c-1.17-0.43-2.34-0.86-3.51-1.3c-0.58-0.22-1.15-0.43-1.73-0.65c-0.2-0.07-0.41-0.16-0.61-0.23
		c-0.94-0.36-1.85-0.72-2.77-1.08c-0.02,0-0.02-0.02-0.04-0.02c-2.47-0.97-4.91-1.96-7.36-2.99c-0.13-0.05-0.23-0.11-0.36-0.14
		c-1.57-0.68-3.15-1.35-4.7-2.03c-0.29-0.13-0.58-0.25-0.86-0.38c-2.02-0.88-4.03-1.8-6.03-2.72c-0.31-0.14-0.61-0.29-0.92-0.43
		c-1.98-0.92-3.94-1.87-5.9-2.83c-1.12-0.54-2.23-1.1-3.35-1.66c-1.67-0.85-3.36-1.71-5.02-2.57c-1.67-0.88-3.33-1.76-4.98-2.65
		c-1.82-0.99-3.62-2-5.42-3h-0.02c-1.48-0.85-2.93-1.69-4.41-2.56c-1.1-0.63-2.16-1.26-3.24-1.91c-1.94-1.15-3.87-2.34-5.79-3.53
		c-0.2-0.13-0.4-0.25-0.59-0.38c-2.12-1.33-4.23-2.68-6.32-4.05c-1.04-0.68-2.07-1.37-3.11-2.09c-0.85-0.56-1.69-1.13-2.52-1.71
		l-1.03-0.7c-0.34-0.23-0.68-0.45-1.03-0.7c-1.15-0.79-2.29-1.6-3.42-2.39c-0.59-0.43-1.19-0.86-1.78-1.3
		c-0.83-0.59-1.66-1.19-2.47-1.78c-2.02-1.48-4.01-2.97-5.99-4.5c-0.99-0.74-1.98-1.51-2.95-2.29c-0.97-0.76-1.96-1.53-2.93-2.32
		c-0.97-0.77-1.93-1.55-2.9-2.34h367.36c19.11,0,38.51-3.62,58.17-10.85c19.69-7.23,38.06-17.08,55.13-29.53
		c17.08-12.43,32.28-27.04,45.6-43.83C703.22,589.01,706.31,584.78,709.21,580.46z"/>
</g>
<linearGradient id="SVGID_00000079471775809289944380000007241181931131904413_" gradientUnits="userSpaceOnUse" x1="404.2663" y1="682.9444" x2="404.2663" y2="127.2556">
	<stop  offset="0" style="stop-color:#F3F4FF"/>
	<stop  offset="1" style="stop-color:#A8B2CE"/>
</linearGradient>
<path fill="url(#SVGID_00000079471775809289944380000007241181931131904413_)" d="M756.85,470.54c-0.02,0.02-0.02,0.04-0.02,0.05
	s0,0.02,0,0.04s0,0.02,0,0.04c-7.59,41.39-22.31,80.27-42.84,115.36c0,0.02-0.02,0.02-0.02,0.04c-2.9,4.32-5.99,8.55-9.27,12.67
	c-13.32,16.79-28.52,31.4-45.6,43.83c-17.08,12.45-35.45,22.29-55.13,29.53c-19.67,7.23-39.06,10.85-58.17,10.85H178.43
	c-24.67-20.14-46.59-43.51-65.1-69.46h318.73c19.69,0,38.63-6.66,56.88-19.97c18.23-13.32,30.82-29.82,37.77-49.48l13.01-35.61
	c7.54-19.69,6.95-36.17-1.73-49.48c-8.69-13.32-22.87-19.97-42.54-19.97H148.13c-19.69,0-36.62-3.62-50.8-10.85
	c-14.18-7.23-25.19-17.08-33-29.53c-7.81-12.45-12.15-27.06-13.03-43.85c-0.09-1.73-0.14-3.45-0.14-5.24
	c8.31-52.85,28.2-101.86,56.97-144.35c12.06-14.16,25.53-26.68,40.43-37.54c17.08-12.43,35.45-22.28,55.13-29.51
	c19.69-7.23,39.06-10.85,58.17-10.85h367.98c24.85,20.1,46.95,43.47,65.62,69.46H375.61c-19.09,0-37.77,6.37-56,19.09
	c-18.23,12.74-30.82,28.66-37.77,47.76l-13.03,36.47c-7.52,19.69-7.09,36.19,1.3,49.5c8.4,13.32,22.44,19.97,42.12,19.97h347.32
	c19.67,0,36.74,3.62,51.23,10.85c14.47,7.23,25.61,17.08,33.41,29.51c7.83,12.45,12.16,27.06,13.03,43.85
	C757.51,459.17,757.37,464.77,756.85,470.54z"/>
<text transform="matrix(1 0 0 1 -290.9918 1690.0983)" font-family="'EngraversMT'" font-size="497.3589px">S</text>
</svg>
